<?xml version="1.0" encoding="utf-8" ?>
<svg baseProfile="full" height="150.0" version="1.1" width="425.0" xmlns="http://www.w3.org/2000/svg" xmlns:ev="http://www.w3.org/2001/xml-events" xmlns:xlink="http://www.w3.org/1999/xlink"><defs /><g transform="scale(1.0)"><rect fill="white" height="150" width="425" x="0" y="0" /><g transform="translate(12.5,12.5) translate(12.5,12.5)"><line stroke="black" stroke-dasharray="2,3" stroke-width="0.5px" x1="100" x2="150" y1="0" y2="0" /><line stroke="black" stroke-dasharray="2,3" stroke-width="0.5px" x1="100" x2="150" y1="25" y2="25" /><line stroke="black" stroke-dasharray="2,3" stroke-width="0.5px" x1="100" x2="150" y1="50" y2="50" /><line stroke="black" stroke-dasharray="2,3" stroke-width="0.5px" x1="100" x2="150" y1="75" y2="75" /><line stroke="black" stroke-dasharray="2,3" stroke-width="0.5px" x1="100" x2="150" y1="100" y2="100" /><line stroke="black" stroke-dasharray="2,3" stroke-width="0.5px" x1="250" x2="300" y1="0" y2="0" /><line stroke="black" stroke-dasharray="2,3" stroke-width="0.5px" x1="250" x2="300" y1="25" y2="25" /><line stroke="black" stroke-dasharray="2,3" stroke-width="0.5px" x1="250" x2="300" y1="50" y2="50" /><line stroke="black" stroke-dasharray="2,3" stroke-width="0.5px" x1="250" x2="300" y1="75" y2="75" /><line stroke="black" stroke-dasharray="2,3" stroke-width="0.5px" x1="250" x2="300" y1="100" y2="100" /><g transform="translate(0,0)"><g id="hlines_0" stroke="black"><line stroke-width="0.5px" x1="0" x2="100" y1="25" y2="25" /><line stroke-width="0.5px" x1="0" x2="100" y1="50" y2="50" /><line stroke-width="0.5px" x1="0" x2="100" y1="75" y2="75" /></g><g id="vlines_0" stroke="black"><line stroke-width="0.5px" x1="25" x2="25" y1="0" y2="100" /><line stroke-width="0.5px" x1="50" x2="50" y1="0" y2="100" /><line stroke-width="0.5px" x1="75" x2="75" y1="0" y2="100" /></g><rect fill="none" height="100" stroke="black" stroke-width="2px" width="100" x="0" y="0" /><circle cx="50" cy="50" fill="black" r="2.5" /><circle cx="25" cy="25" fill="black" r="11.363636363636363" stroke="black" /><circle cx="50" cy="25" fill="black" r="11.363636363636363" stroke="black" /><circle cx="25" cy="50" fill="black" r="11.363636363636363" stroke="black" /><circle cx="75" cy="50" fill="white" r="11.363636363636363" stroke="black" /><circle cx="75" cy="75" fill="white" r="11.363636363636363" stroke="black" /></g><text fill="black" font-family="Courier" font-size="17px" text-anchor="middle" x="50.0" y="125">z=0</text><g transform="translate(150,0)"><g id="hlines_1" stroke="black"><line stroke-width="0.5px" x1="0" x2="100" y1="25" y2="25" /><line stroke-width="0.5px" x1="0" x2="100" y1="50" y2="50" /><line stroke-width="0.5px" x1="0" x2="100" y1="75" y2="75" /></g><g id="vlines_1" stroke="black"><line stroke-width="0.5px" x1="25" x2="25" y1="0" y2="100" /><line stroke-width="0.5px" x1="50" x2="50" y1="0" y2="100" /><line stroke-width="0.5px" x1="75" x2="75" y1="0" y2="100" /></g><rect fill="none" height="100" stroke="black" stroke-width="2px" width="100" x="0" y="0" /><circle cx="50" cy="50" fill="black" r="2.5" /><circle cx="25" cy="25" fill="black" r="11.363636363636363" stroke="black" /><circle cx="50" cy="25" fill="black" r="11.363636363636363" stroke="black" /><circle cx="50" cy="50" fill="white" r="11.363636363636363" stroke="black" /><circle cx="25" cy="75" fill="white" r="11.363636363636363" stroke="black" /><circle cx="50" cy="75" fill="white" r="11.363636363636363" stroke="black" /></g><text fill="black" font-family="Courier" font-size="17px" text-anchor="middle" x="200.0" y="125">z=1</text><g transform="translate(300,0)"><g id="hlines_2" stroke="black"><line stroke-width="0.5px" x1="0" x2="100" y1="25" y2="25" /><line stroke-width="0.5px" x1="0" x2="100" y1="50" y2="50" /><line stroke-width="0.5px" x1="0" x2="100" y1="75" y2="75" /></g><g id="vlines_2" stroke="black"><line stroke-width="0.5px" x1="25" x2="25" y1="0" y2="100" /><line stroke-width="0.5px" x1="50" x2="50" y1="0" y2="100" /><line stroke-width="0.5px" x1="75" x2="75" y1="0" y2="100" /></g><rect fill="none" height="100" stroke="black" stroke-width="2px" width="100" x="0" y="0" /><circle cx="50" cy="50" fill="black" r="2.5" /><circle cx="0" cy="0" fill="black" r="11.363636363636363" stroke="black" /><circle cx="100" cy="25" fill="white" r="11.363636363636363" stroke="black" /><circle cx="50" cy="50" fill="white" r="11.363636363636363" stroke="black" /><circle cx="75" cy="75" fill="black" r="11.363636363636363" stroke="black" /></g><text fill="black" font-family="Courier" font-size="17px" text-anchor="middle" x="350.0" y="125">z=2</text></g></g></svg>